HIERARCHY
ROOT Hips
{
  OFFSET 0 89.5177 0.535
  CHANNELS 6 Xposition Yposition Zposition Zrotation Xrotation Yrotation
  JOINT Spine
  {
    OFFSET 12.0259 -0.162855 1.69034e-005
    CHANNELS 3 Zrotation Xrotation Yrotation
    JOINT Spine1
    {
      OFFSET 15.3169 -0.0121922 0
      CHANNELS 3 Zrotation Xrotation Yrotation
      JOINT Spine2
      {
        OFFSET 15.3176 -0.0121908 0
        CHANNELS 3 Zrotation Xrotation Yrotation
        JOINT Neck
        {
          OFFSET 19.9142 1.56338 0
          CHANNELS 3 Zrotation Xrotation Yrotation
          JOINT Head
          {
            OFFSET 6.92651 0 0
            CHANNELS 3 Zrotation Xrotation Yrotation
            End Site
            {
              OFFSET 20.7666 0 0
            }
          }
          JOINT LeftShoulder
          {
            OFFSET -6.20654 0.708824 7.28219
            CHANNELS 3 Zrotation Xrotation Yrotation
            JOINT LeftArm
            {
              OFFSET 14.108 0 -1.52588e-005
              CHANNELS 3 Zrotation Xrotation Yrotation
              JOINT LeftForeArm
              {
                OFFSET 28.5802 0 0
                CHANNELS 3 Zrotation Xrotation Yrotation
                JOINT LeftHand
                {
                  OFFSET 27.092 0 0
                  CHANNELS 3 Zrotation Xrotation Yrotation
                  End Site
                  {
                    OFFSET 9.55928 -0.186424 0.145352
                  }
                }
              }
            }
          }
          JOINT RightShoulder
          {
            OFFSET -6.20654 0.708866 -7.28218
            CHANNELS 3 Zrotation Xrotation Yrotation
            JOINT RightArm
            {
              OFFSET 14.108 0 1.52588e-005
              CHANNELS 3 Zrotation Xrotation Yrotation
              JOINT RightForeArm
              {
                OFFSET 28.5802 0 0
                CHANNELS 3 Zrotation Xrotation Yrotation
                JOINT RightHand
                {
                  OFFSET 27.092 0 0
                  CHANNELS 3 Zrotation Xrotation Yrotation
                  End Site
                  {
                    OFFSET 9.55929 -0.186417 -0.145354
                  }
                }
              }
            }
          }
        }
      }
    }
  }
  JOINT LeftUpLeg
  {
    OFFSET 0.005 -0.535 8.837
    CHANNELS 3 Zrotation Xrotation Yrotation
    JOINT LeftLeg
    {
      OFFSET 39.9035 0 0
      CHANNELS 3 Zrotation Xrotation Yrotation
      JOINT LeftFoot
      {
        OFFSET 39.6689 0 0
        CHANNELS 3 Zrotation Xrotation Yrotation
        JOINT LeftToe
        {
          OFFSET 10.1624 13.6296 0
          CHANNELS 3 Zrotation Xrotation Yrotation
          End Site
          {
            OFFSET 8.38147 0 0
          }
        }
      }
    }
  }
  JOINT RightUpLeg
  {
    OFFSET 0.005 -0.535 -8.837
    CHANNELS 3 Zrotation Xrotation Yrotation
    JOINT RightLeg
    {
      OFFSET 39.9035 0 0
      CHANNELS 3 Zrotation Xrotation Yrotation
      JOINT RightFoot
      {
        OFFSET 39.6689 0 0
        CHANNELS 3 Zrotation Xrotation Yrotation
        JOINT RightToe
        {
          OFFSET 10.1624 13.6296 0
          CHANNELS 3 Zrotation Xrotation Yrotation
          End Site
          {
            OFFSET 8.38147 0 0
          }
        }
      }
    }
  }
}
MOTION
Frames:	9
Frame Time:	0.0333333
269.428 89.5404 6.39315 142.948 -79.7875 51.5424 -1.05092 -0.315881 -0.855432 -2.10648 -0.615521 -1.71637 -2.10648 -0.61552 -1.71638 -8.30748e-012 -9.0191e-006 -5.27751e-005 11.2309 0.926908 -0.860515 177.526 -14.4589 -99.8182 -14.9122 -47.1339 -3.12243 -9.11593e-006 -1.27222e-014 -0 -44.4676 -26.4255 -32.433 178.299 6.75344 104.17 81.236 67.3826 -81.5949 -2.91403 0 3.97569e-016 -36.2694 9.97342 16.1663 -11.6417 5.0905 -178.481 -18.7665 0 -3.97569e-016 16.7621 3.82532 -7.59335 90 7.45443e-016 1.59028e-015 -11.7894 -4.52777 -177.548 -17.6495 0 9.93923e-017 14.5214 -2.04528 3.99862 90 8.69683e-016 7.95139e-016 
269.407 89.5409 6.40442 143.253 -79.782 51.8421 -1.05505 -0.311192 -0.85031 -2.11464 -0.606176 -1.70606 -2.11464 -0.606176 -1.70607 -8.30708e-012 -9.0191e-006 -5.27751e-005 11.2739 0.88084 -0.820654 177.521 -14.5337 -99.7897 -15.0503 -47.1056 -3.15933 -9.26994e-006 3.18055e-015 1.59028e-015 -44.5164 -26.6477 -32.693 178.293 6.77949 104.164 81.6752 67.4165 -82.0353 -2.85512 -7.95139e-016 3.97569e-016 -36.2817 9.94587 16.2522 -11.6721 5.1152 -178.492 -18.7532 0 3.97569e-016 16.7702 3.81517 -7.57282 90 2.98177e-016 -0 -11.8396 -4.5125 -177.561 -17.6545 0 -1.98785e-016 14.5271 -2.06584 4.03988 90 3.07495e-016 -0 
269.389 89.5413 6.41088 143.493 -79.7889 52.0682 -1.05367 -0.310349 -0.848415 -2.11012 -0.606121 -1.70224 -2.11012 -0.60612 -1.70225 -8.30788e-012 -9.0191e-006 -5.27751e-005 11.3132 0.890005 -0.778432 177.496 -14.6754 -99.7947 -15.3833 -46.8244 -3.31072 -9.42396e-006 6.36111e-015 -7.95139e-016 -44.7221 -26.7479 -32.8985 178.295 6.77198 104.167 81.66 67.3885 -82.0138 -2.82785 7.95139e-016 -3.97569e-016 -36.3359 9.95599 16.237 -11.7127 5.18907 -178.474 -18.7989 -1.59028e-015 -0 16.831 3.85273 -7.6493 90 -1.2424e-015 -1.59028e-015 -11.8753 -4.52421 -177.566 -17.6701 -7.95139e-016 6.95746e-016 14.5418 -2.09362 4.09584 90 -3.78933e-016 2.38542e-015 
269.365 89.5417 6.4118 143.642 -79.7798 52.2048 -1.05057 -0.309846 -0.845033 -2.0975 -0.606105 -1.70303 -2.0975 -0.606105 -1.70304 -8.30748e-012 -9.0191e-006 -5.27751e-005 11.3509 0.888823 -0.769641 177.478 -14.7438 -99.8207 -15.6711 -46.7378 -3.52549 -9.57728e-006 0 3.18055e-015 -44.8392 -26.7997 -32.9999 178.282 6.80191 104.213 81.7465 67.3152 -82.1598 -2.82051 -7.95139e-016 -0 -36.3522 10.0748 16.3255 -11.7432 5.18232 -178.484 -18.8122 -3.18055e-015 -3.97569e-016 16.8048 3.82894 -7.6006 90 -2.13694e-015 1.59028e-015 -11.8876 -4.50614 -177.561 -17.6436 -3.97569e-016 -2.98177e-016 14.5072 -2.08883 4.08584 90 1.45982e-016 7.95139e-016 
269.343 89.5426 6.40912 143.854 -79.7535 52.3935 -1.04723 -0.309544 -0.84115 -2.09904 -0.606105 -1.69821 -2.09904 -0.606105 -1.69822 -8.30669e-012 -9.0191e-006 -5.27751e-005 11.3939 0.858506 -0.80714 177.451 -14.8751 -99.8393 -16.1422 -46.6464 -3.82954 -9.7292e-006 -1.59028e-014 -1.59028e-015 -44.8153 -26.7929 -32.9926 178.275 6.80162 104.268 81.4227 67.2296 -81.8622 -2.8125 7.95139e-016 -3.97569e-016 -36.3102 10.0756 16.368 -11.7987 5.17449 -178.48 -18.8418 0 1.19271e-015 16.8129 3.81131 -7.56495 90 7.95139e-016 -0 -11.9091 -4.4666 -177.551 -17.5964 -1.19271e-015 1.98785e-016 14.4508 -2.07353 4.05525 90 5.96354e-016 7.95139e-016 
269.321 89.5476 6.39032 144.058 -79.7474 52.5779 -1.043 -0.309305 -0.837952 -2.08666 -0.606093 -1.69003 -2.08666 -0.606093 -1.69004 -8.30708e-012 -9.0191e-006 -5.27751e-005 11.3508 0.899155 -0.933378 177.424 -14.9555 -99.89 -16.4577 -46.555 -4.0643 -9.87902e-006 0 7.95139e-016 -44.8419 -26.7573 -33.052 178.273 6.77393 104.339 81.1309 67.1455 -81.5291 -2.80803 0 3.97569e-016 -36.2921 9.98742 16.33 -11.7902 5.1888 -178.474 -18.7979 -1.59028e-015 -7.95139e-016 16.7891 3.80946 -7.56146 90 1.3418e-015 1.59028e-015 -11.9003 -4.4956 -177.555 -17.5478 3.97569e-016 -0 14.4379 -2.11228 4.13327 90 2.48481e-017 -7.95139e-016 
269.292 89.5574 6.3746 144.376 -79.7255 52.8714 -1.04026 -0.30899 -0.836622 -2.08504 -0.606039 -1.6786 -2.08504 -0.606039 -1.67861 -8.30788e-012 -9.0191e-006 -5.27751e-005 11.2703 1.05314 -1.05917 177.409 -15.0378 -99.8932 -16.8125 -46.4908 -4.38722 -1.0026e-005 -6.36111e-015 1.59028e-015 -44.9047 -26.7998 -33.1247 178.263 6.76834 104.426 81.4023 67.0919 -81.7578 -2.80484 -2.38542e-015 -7.95139e-016 -36.2437 9.98446 16.3846 -11.7842 5.21729 -178.467 -18.7225 0 -3.97569e-016 16.7802 3.82058 -7.58428 90 -1.63997e-015 -1.59028e-015 -11.8865 -4.45505 -177.543 -17.4293 -3.97569e-016 5.96354e-016 14.3571 -2.10831 4.1255 90 -1.86361e-016 -3.18055e-015 
269.262 89.565 6.36215 144.952 -79.6996 53.4338 -1.04885 -0.308459 -0.836983 -2.10207 -0.601111 -1.6727 -2.10207 -0.60111 -1.67271 -8.30788e-012 -9.0191e-006 -5.27751e-005 11.1319 1.48254 -1.23337 177.39 -15.1372 -99.9029 -17.0738 -46.499 -4.64824 -1.01696e-005 -3.18055e-015 -7.95139e-016 -44.8958 -26.7897 -33.105 178.238 6.83893 104.482 81.8742 67.0803 -82.2814 -2.83242 0 -0 -36.2889 9.91382 16.3495 -11.7966 5.23344 -178.485 -18.6211 -1.59028e-015 -3.97569e-016 16.7305 3.78457 -7.51143 90 7.95139e-016 -3.18055e-015 -11.9352 -4.41047 -177.553 -17.365 7.95139e-016 -9.93923e-017 14.3308 -2.13838 4.18601 90 3.72721e-017 7.95139e-016 
269.227 89.5681 6.35083 145.579 -79.704 54.0635 -1.05891 -0.306402 -0.837934 -2.12209 -0.596922 -1.66493 -2.12209 -0.596922 -1.66494 -8.30669e-012 -9.0191e-006 -5.27751e-005 10.9781 2.23286 -1.44684 177.38 -15.182 -99.9112 -17.1048 -46.4932 -4.77875 -1.03089e-005 0 7.95139e-016 -44.8205 -26.7982 -33.0915 178.229 6.84362 104.548 82.1186 67.0748 -82.536 -2.84296 7.95139e-016 -3.97569e-016 -36.2994 9.86279 16.2507 -11.7939 5.3208 -178.504 -18.535 -1.59028e-015 -1.19271e-015 16.7225 3.78621 -7.51494 90 -2.98177e-016 1.59028e-015 -12.0018 -4.39312 -177.583 -17.3754 -5.96354e-016 -2.98177e-016 14.3572 -2.18529 4.28025 90 9.47333e-016 -0 
